<svg width="28" height="17" viewBox="0 0 28 17" fill="none" xmlns="http://www.w3.org/2000/svg">
<path d="M0.830913 6.8836L11.5286 0.262504C11.7933 0.0959212 12.0963 0.00591833 12.4061 0.00189855C12.7159 -0.00212122 13.021 0.0799896 13.2896 0.239652C13.581 0.415221 13.8224 0.667453 13.9891 0.970731C14.1558 1.27401 14.242 1.61753 14.2389 1.96641V6.59825L24.475 0.260746C24.7396 0.0941634 25.0427 0.00416059 25.3524 0.000140814C25.6622 -0.00387896 25.9673 0.0782319 26.2359 0.237894C26.5274 0.413464 26.7687 0.665695 26.9355 0.968973C27.1022 1.27225 27.1884 1.61577 27.1852 1.96465V14.9139C27.1885 15.2629 27.1024 15.6065 26.9357 15.9099C26.7689 16.2133 26.5275 16.4656 26.2359 16.6412C25.9673 16.8009 25.6622 16.883 25.3524 16.879C25.0427 16.8749 24.7396 16.7849 24.475 16.6184L14.2389 10.2779V14.9115C14.2426 15.2609 14.1567 15.6051 13.9899 15.9089C13.8231 16.2128 13.5815 16.4654 13.2896 16.6412C13.021 16.8009 12.7159 16.883 12.4061 16.879C12.0963 16.8749 11.7933 16.7849 11.5286 16.6184L0.830913 9.99727C0.576598 9.83247 0.366931 9.60352 0.22159 9.33192C0.0762488 9.06032 0 8.75497 0 8.44453C0 8.13409 0.0762488 7.82874 0.22159 7.55714C0.366931 7.28554 0.576598 7.0566 0.830913 6.8918V6.8836Z" fill="black"/>
</svg>
